<svg width="31" height="32" viewBox="0 0 31 32" fill="none" xmlns="http://www.w3.org/2000/svg">
<path d="M15.5 1.79167C11.7715 1.75378 8.18057 3.19778 5.51632 5.80633C2.85207 8.41487 1.33252 11.9745 1.29163 15.7029C1.30599 18.6494 2.25384 21.5156 3.99904 23.8897C5.74424 26.2638 8.19697 28.0237 11.005 28.9167C11.7154 29.0458 11.9737 28.6196 11.9737 28.245C11.9737 27.8704 11.9737 27.0438 11.9737 25.8813C8.02121 26.7208 7.18163 24.0212 7.18163 24.0212C6.91851 23.1738 6.35913 22.4494 5.60579 21.9804C4.31413 21.1279 5.70913 21.1408 5.70913 21.1408C6.15559 21.2005 6.58275 21.3605 6.95857 21.6088C7.33438 21.8571 7.6491 22.1873 7.87913 22.5746C8.27997 23.2697 8.93769 23.7796 9.71072 23.9946C10.4838 24.2096 11.3103 24.1125 12.0125 23.7242C12.0847 23.0168 12.405 22.3579 12.9166 21.8642C9.76496 21.5154 6.45829 20.3271 6.45829 14.9925C6.43011 13.601 6.94427 12.253 7.89204 11.2338C7.4604 10.039 7.51137 8.72315 8.03413 7.56542C8.03413 7.56542 9.23538 7.19083 11.9091 8.98625C14.2366 8.36604 16.6858 8.36604 19.0133 8.98625C21.7258 7.19083 22.8883 7.56542 22.8883 7.56542C23.411 8.72315 23.462 10.039 23.0304 11.2338C24.0002 12.2343 24.5422 13.5732 24.5416 14.9667C24.5416 20.3142 21.2091 21.4896 18.0833 21.8383C18.4256 22.1706 18.69 22.5747 18.8575 23.0213C19.025 23.468 19.0914 23.9462 19.052 24.4217V28.2321C19.052 28.2321 19.3104 29.0458 20.0208 28.9038C22.8208 28.0053 25.2653 26.2449 27.0051 23.8742C28.7449 21.5034 29.691 18.6435 29.7083 15.7029C29.6674 11.9745 28.1478 8.41487 25.4836 5.80633C22.8193 3.19778 19.2284 1.75378 15.5 1.79167Z" fill="white"/>
</svg>
