<svg width="29" height="30" viewBox="0 0 29 30" fill="none" xmlns="http://www.w3.org/2000/svg">
<path d="M1 20.8494V9.15057C1 5.11239 4.2736 1.83878 8.31179 1.83878H20.0106C24.0488 1.83878 27.3224 5.11239 27.3224 9.15057V20.8494C27.3224 24.8876 24.0488 28.1612 20.0106 28.1612H8.31179C4.2736 28.1612 1 24.8876 1 20.8494Z" stroke="white" stroke-width="2"/>
<path d="M14.1612 20.8494C17.3917 20.8494 20.0106 18.2305 20.0106 15C20.0106 11.7694 17.3917 9.15057 14.1612 9.15057C10.9306 9.15057 8.31177 11.7694 8.31177 15C8.31177 18.2305 10.9306 20.8494 14.1612 20.8494Z" stroke="white" stroke-width="2" stroke-linecap="round" stroke-linejoin="round"/>
<path d="M22.2042 6.97165L22.2188 6.95541" stroke="white" stroke-width="2" stroke-linecap="round" stroke-linejoin="round"/>
</svg>
