<svg width="46" height="46" viewBox="0 0 46 46" fill="none" xmlns="http://www.w3.org/2000/svg">
<path d="M35.0019 7.5026H10.8056C10.4937 7.48799 10.182 7.53502 9.88833 7.64103C9.59466 7.74703 9.32478 7.9099 9.09413 8.12032C8.86349 8.33075 8.67661 8.5846 8.54421 8.86732C8.41181 9.15007 8.33647 9.45613 8.32251 9.76802V34.0171C8.34078 34.6697 8.60826 35.2908 9.07002 35.7524C9.53178 36.2142 10.1528 36.4817 10.8056 36.5H35.0019C35.6364 36.4717 36.2347 36.1959 36.6685 35.7318C37.1022 35.2676 37.3367 34.6521 37.3218 34.0171V9.76802C37.3271 9.46445 37.2702 9.16304 37.1547 8.88224C37.0393 8.60146 36.8676 8.3472 36.6503 8.13507C36.4332 7.92295 36.1749 7.75745 35.8915 7.64869C35.608 7.53994 35.3053 7.49022 35.0019 7.5026ZM17.3848 31.6792H13.1618V18.7572H17.3848V31.6792ZM15.373 16.7999C15.0783 16.8102 14.7846 16.7594 14.5105 16.6507C14.2364 16.5421 13.9877 16.378 13.7801 16.1686C13.5724 15.9593 13.4103 15.7093 13.3039 15.4343C13.1975 15.1593 13.1491 14.8653 13.1618 14.5707C13.1487 14.2729 13.1981 13.9758 13.3067 13.6982C13.4153 13.4206 13.5807 13.1688 13.7923 12.9589C14.0039 12.749 14.257 12.5857 14.5355 12.4794C14.814 12.373 15.1116 12.3261 15.4092 12.3415C15.7039 12.3313 15.9975 12.382 16.2717 12.4907C16.5458 12.5993 16.7945 12.7634 17.0021 12.9728C17.2098 13.1821 17.3719 13.4321 17.4783 13.7071C17.5847 13.9821 17.6331 14.2761 17.6204 14.5707C17.6335 14.8685 17.5841 15.1657 17.4755 15.4432C17.3669 15.7208 17.2015 15.9726 16.9899 16.1825C16.7783 16.3924 16.5252 16.5557 16.2467 16.662C15.9682 16.7684 15.6706 16.8153 15.373 16.7999ZM32.5007 31.6792H28.2596V24.6111C28.2596 22.9256 27.6614 21.7657 26.1571 21.7657C25.6898 21.7697 25.2351 21.9181 24.8556 22.1907C24.4759 22.4633 24.1899 22.8466 24.0365 23.2881C23.9187 23.619 23.8694 23.9704 23.8915 24.3211V31.6792H19.7229V18.7572H23.8915V20.5696C24.2622 19.8887 24.8137 19.3236 25.4854 18.9365C26.1571 18.5496 26.9227 18.3558 27.6977 18.3766C30.4345 18.3766 32.5007 20.189 32.5007 24.0493V31.6792Z" fill="white"/>
</svg>
